<svg width="281" height="282" xmlns="http://www.w3.org/2000/svg" xmlns:xlink="http://www.w3.org/1999/xlink" overflow="hidden"><defs><clipPath id="clip0"><rect x="414" y="179" width="281" height="282"/></clipPath><clipPath id="clip1"><rect x="415" y="181" width="278" height="278"/></clipPath><clipPath id="clip2"><rect x="415" y="181" width="278" height="278"/></clipPath><clipPath id="clip3"><rect x="415" y="181" width="278" height="278"/></clipPath></defs><g clip-path="url(#clip0)" transform="translate(-414 -179)"><path d="M415.5 320.5C415.5 243.732 477.732 181.5 554.5 181.5 631.268 181.5 693.5 243.732 693.5 320.5 693.5 397.268 631.268 459.5 554.5 459.5 477.732 459.5 415.5 397.268 415.5 320.5Z" stroke="#2F528F" stroke-width="1.33333" stroke-miterlimit="8" fill="#FFFFFF" fill-rule="evenodd"/><g clip-path="url(#clip1)"><g clip-path="url(#clip2)"><g clip-path="url(#clip3)"><path d="M606.125 285.25C606.125 314.038 582.788 337.375 554 337.375 525.212 337.375 501.875 314.038 501.875 285.25 501.875 256.462 525.212 233.125 554 233.125 582.788 233.125 606.125 256.462 606.125 285.25Z" fill="#7F7F7F"/><path d="M415 320C415 243.232 477.232 181 554 181 630.768 181 693 243.232 693 320 693 396.768 630.768 459 554 459 477.232 459 415 396.768 415 320ZM554 198.375C486.828 198.379 432.378 252.835 432.381 320.006 432.383 347.6 441.767 374.373 458.993 395.929 471.33 376.052 498.487 354.75 554 354.75 609.513 354.75 636.653 376.034 649.006 395.929 690.941 343.455 682.396 266.921 629.922 224.987 608.366 207.761 581.594 198.376 554 198.375Z" fill="#7F7F7F" fill-rule="evenodd"/></g></g></g><text fill="#FFFFFF" font-family="Matura MT Script Capitals,Matura MT Script Capitals_MSFontService,sans-serif" font-weight="700" font-size="37" transform="translate(476.379 416)">Walle<tspan font-size="37" x="106.08" y="0">X</tspan></text></g></svg>